<svg id="Capa_1" data-name="Capa 1" xmlns="http://www.w3.org/2000/svg" viewBox="0 0 412 512"><defs><style>.cls-1{fill:#e1eef2;}.cls-1,.cls-4{stroke:#7c9ebf;stroke-miterlimit:10;stroke-width:3px;}.cls-2{fill:#7c9ebf;}.cls-12,.cls-3{opacity:0.35;}.cls-13,.cls-14,.cls-4,.cls-9{fill:#2c3e50;}.cls-5{fill:#cfcfcf;}.cls-6{fill:#3f4040;}.cls-7{fill:#fff;opacity:0.5;}.cls-8{fill:#39c4bf;}.cls-10{fill:#0b0b0b;}.cls-11{fill:#b0b0b0;}.cls-13{font-size:93.93px;font-family:QuantumRegular, Quantum;}.cls-14{font-size:24.98px;font-family:BebasNeue-Regular, Bebas Neue;}.cls-15{letter-spacing:0em;}.cls-16{letter-spacing:-0.08em;}.cls-17{letter-spacing:-0.05em;}.cls-18{letter-spacing:0em;}.cls-19{letter-spacing:0em;}.cls-20{letter-spacing:0em;}.cls-21{letter-spacing:0em;}.cls-22{letter-spacing:0em;}.cls-23{letter-spacing:0em;}</style></defs><g id="Capa_5" data-name="Capa 5"><path class="cls-1" d="M352.17,328.39c4.3-24-6.13-48.09-20.91-66.55-9.39-11.14-29.85-34.69-42.53-30.28s-11.86,34.17-11.92,46.34c-.11,22.15,4.38,52.64,14.52,62.77,5.92,5.93,14.57,6.68,22.7,6.58S347.77,343.82,352.17,328.39Z"/><path class="cls-2" d="M337.28,334.44c-3.53-1.38-7.22-1.32-10.91-1.16-5.4.23-10.83.56-15.95,2.43a44.75,44.75,0,0,0-6.86,3.55c.85,0,1.89.14,2.31.13a90.75,90.75,0,0,0,14.28-.65C328.45,337.74,333.05,335.68,337.28,334.44Z"/><g class="cls-3"><path d="M337.28,334.44A111.15,111.15,0,0,1,324.59,338a84.63,84.63,0,0,1-21,1.26,2.47,2.47,0,0,0-.92,1.19c1.5,1.49,11.17,1.54,20.06.2,8.31-1.25,16-3.74,14.89-6.06l-.13,0,.06-.09Z"/></g><ellipse class="cls-4" cx="224.6" cy="302.86" rx="58.02" ry="59.05"/><path class="cls-1" d="M113.33,367.8c8-2.94,18-5.81,22.64-14.05,7.92-14.08,3.52-48.54-3.34-72.55-3.77-13.18-11.92-45.73-27-46.66s-30.15,30.85-37,45.8c-10.43,24.53-14.41,53.87-2.44,78.58C75.66,374.34,98.48,369.72,113.33,367.8Z"/><path class="cls-5" d="M285.14,350.79l.25,2Z"/><path class="cls-5" d="M185.5,154.05l2-.12Z"/><path class="cls-6" d="M270,167l-1.88-.73Z"/><path class="cls-5" d="M153.77,152.16l1.36.22Z"/><path class="cls-5" d="M287.05,358.57c.25.53.51,1.05.76,1.58C287.56,359.62,287.3,359.1,287.05,358.57Z"/><path class="cls-5" d="M151.1,151.82l1.36.21Z"/><path class="cls-5" d="M299.84,362.75l1.34-.64Z"/><path class="cls-6" d="M273.31,168.38l-1.54-.73Z"/><path class="cls-5" d="M285.5,353.45l.23,1Z"/><path class="cls-5" d="M297.85,363.13l1-.22Z"/><path class="cls-5" d="M285.83,355.12l.25.69Z"/><path class="cls-5" d="M286.2,356.45l.22.7Z"/><path class="cls-5" d="M301.86,361.47l.36-.66Z"/><path class="cls-5" d="M302.49,350.36l.71.07Z"/><path class="cls-7" d="M115.11,242.83c10.91,25.94,1.44,72.42,16.4,104.32-.51,11.66-6,1-25,2.82-8.24.77-18.6,5.37-22.85,6.1-2,.34-2.78-1.73-1.2-2.54,16.29-8.44,20.64-13.14,23.44-26.23S92.28,231.56,115.11,242.83Z"/><path class="cls-8" d="M84,361.14l.09.08h-.15Z"/><path class="cls-1" d="M273.53,165.34c13.47,6.26,17,30.86,17.84,36.36,4.63,28.56,1.89,51.58-7.05,79.56a49.33,49.33,0,0,1-3.45,6.18c-.37.62-.86,1-1.51.08-4.5-6.13-10.93-9.31-18-11.15a59.72,59.72,0,0,0-35.87,1.6,50.5,50.5,0,0,0-7.34,3.11c-5.43,3-10.83,6.1-16.09,9.41A124.39,124.39,0,0,0,192,297.81c-4,3.14-8,6.3-11.84,9.7a111.37,111.37,0,0,0-10.34,10.18c-5.68-1.76-10.89-7.51-14.6-14.11-10.71-23.29-20-50.26-24.6-75.47-5.67-31.3,9.11-44.36,27.69-55.57C193.3,151.42,236.2,148,273.53,165.34Z"/><path class="cls-9" d="M278.25,171.73c3.69,17.52,9.75,43.42,4.63,60.28-4.29.56-10.62,1.13-12.35,1.79a5.42,5.42,0,0,1-4.72-.2c-5.66-3.34-13.2-5-20.75-6.17-6.88-21.63-12.34-44-31.27-60.28-2.14-2-10.13-7-12.6-8.67C226.66,151.72,270.4,160.66,278.25,171.73Z"/><path class="cls-10" d="M278.83,174.65c.12.28.24.57.35.85C279.07,175.22,279,174.93,278.83,174.65Z"/><path class="cls-7" d="M197.29,159.08c6.48,7.31,19.55,22.49,22.81,31.95s12.63,39.86,5.25,58.8C221.27,265,203,278.4,192.23,260.36c-11.6-20.81-6.92-43.09-16.47-64.49-5.24-12-11.37-17.29-5.31-27.53C179.37,164.77,187.68,161.31,197.29,159.08Z"/><path class="cls-11" d="M286.43,346.41c0,.57.07,1.13.11,1.69C286.5,347.54,286.47,347,286.43,346.41Z"/><path class="cls-11" d="M288,354.77c.24.64.48,1.28.73,1.92C288.43,356.05,288.19,355.41,288,354.77Z"/><path class="cls-11" d="M287.14,351.76l.36,1.36Z"/><path class="cls-11" d="M286.55,342.45l-.05,1.32Z"/><path class="cls-11" d="M288.92,357.11l.87,1.11Z"/><path class="cls-11" d="M286.78,349.77l.08.67Z"/><path class="cls-1" d="M119.07,56.86c8.25-15.62,16.11-32.92,30.4-43.93,34.17-22.29,66.32,4.7,94.86,32.5,25.91,25.23,27.46,53.27,25,64.83-2.88,13.72-13.64,25.5-27,30.11-32.61,11.25-69.28,15.37-105,5.76-20.41-5.5-30.54-16.79-31.88-30.84C103.73,97.07,110.23,75.47,119.07,56.86Z"/><path class="cls-7" d="M111.63,91.32c1.55-15.7,12.46-37.11,19.81-50.94-1.32,7.89-3.26,14-4.49,20.07-.94,4.69,1.87,8.65-.78,13.37C121.15,74.59,114.21,85.85,111.63,91.32Z"/><path class="cls-1" d="M84.87,402.51c-2.69,1.16-6.75,2.4-8.19-1-3.65-7.91-5-16-2.42-24.62,1.34-4.48,4.94-5.3,8.72-6a20.36,20.36,0,0,1,2.82-.23c2.25-.09,3.25.87,3,3.11s-.81,4.51-.89,6.77c-.21,5.61-.38,11.23-.22,16.83A5.06,5.06,0,0,1,84.87,402.51Z"/><path class="cls-11" d="M115.11,242.83l-.68-1Z"/><path class="cls-1" d="M133.2,370.8c-.18-2.82-.7-3.33-3.58-3.3-.44,0-.88.06-1.32.1-3.82-.22-5.33,1.14-5,4.88a14,14,0,0,1-2.11,8.91,31.66,31.66,0,0,0-2.06,4.17c-.59,1.37-.09,2.42,1.41,2.48,1.91.08,3.83-.14,5.74-.24,2.33-.18,4.84-2.91,5.65-6A33.93,33.93,0,0,0,133.2,370.8Z"/><path class="cls-2" d="M159,203.72c2.54,4.86,3.31,10.19,4,15.51a101.92,101.92,0,0,1,.66,10.92,21.89,21.89,0,0,1-.74,5.56,7.44,7.44,0,0,1-7,5.9,10.8,10.8,0,0,1-6.05-5.5,36.48,36.48,0,0,1-2.88-23.3,27.45,27.45,0,0,1,2.44-7.48A6.09,6.09,0,0,1,159,203.72Z"/><g class="cls-3"><path d="M159,203.72a6.09,6.09,0,0,0-9.65,1.61,27.45,27.45,0,0,0-2.44,7.48,36.48,36.48,0,0,0,2.88,23.3,10.63,10.63,0,0,0,6.05,5.5c-2,.43-3.41-.17-5.53-1a14.19,14.19,0,0,1-6.41-6.3,42.32,42.32,0,0,1-4.35-14.64c-.46-4.81-.43-9.56,1.69-13.93,1.27-2.61,2.83-5.4,5-7.18a7.2,7.2,0,0,1,9,.16A21.76,21.76,0,0,1,159,203.72Z"/></g><path class="cls-1" d="M300.12,357c-2.05-3.85-4.35-7.62-3.71-12.18,0-2.62-.24-3.14-2.75-3.79-2.24-.58-4.61-1.32-6.74.48-1.16,5.41-.29,12.13,2.87,16.76,1.85,2.54,4.44,3.2,7.39,2.92C301,361.21,301.6,360.33,300.12,357Z"/><path class="cls-7" d="M253.36,103.75c-4.47-24.86-4.73-32.32-12-43C230.67,45,196.56,9.64,174.42,18.37c-3.8,1.5,48.44,62.85,42.66,101.52C213,129.67,257.84,128.6,253.36,103.75Z"/><path class="cls-1" d="M115,393.68c-.36-1.56-1-3.05-1.48-4.58a73.39,73.39,0,0,1-3.3-21.82c0-2.19-.38-2.73-2.54-2.18a75.21,75.21,0,0,0-9.18,3.24c-3.6,1.22-3.45,5.79-3.31,8.12a91.26,91.26,0,0,0,1.39,9.72c.77,4.13,2,8.14,5.25,11.08.92.82,2.17,1.77,3.26,1.78a29.36,29.36,0,0,0,7.53-.92C114.88,397.54,115.56,396,115,393.68Z"/><path class="cls-1" d="M331.41,371.54a29.35,29.35,0,0,0,7.53.91c1.1,0,2.34-1,3.26-1.78,3.27-2.93,4.48-6.95,5.26-11.08a96.32,96.32,0,0,0,1.39-9.72,11.44,11.44,0,0,0-.77-5.88c-.8-1.55-3.91-3.8-5.65-2.56a10.19,10.19,0,0,0-1.68,2,10.66,10.66,0,0,1-2.65,2.06c-1.82,1.12-4.48,2-4.84,4.25a89.91,89.91,0,0,1-2.75,12.77c-.47,1.53-1.12,3-1.47,4.57C328.52,369.39,329.2,371,331.41,371.54Z"/><path class="cls-1" d="M312.59,377.61a28,28,0,0,0,7.09,0,5.47,5.47,0,0,0,2.84-2c2.73-3,3.43-6.84,3.71-10.71a86.05,86.05,0,0,0,.26-9c-.09-1.64-.22-4.52-1.52-5.74s-5.07-.92-6.85-.89a8.67,8.67,0,0,0-4.42,1c-2.88,1.74-1.64,5.77-1.72,8.57a68.88,68.88,0,0,1-1.17,10.62c-.28,1.45-.73,2.88-.89,4.35C309.68,376,310.48,377.32,312.59,377.61Z"/><path class="cls-11" d="M234.89,62.86l-.68.26Z"/><path class="cls-2" d="M276,200.86a67.79,67.79,0,0,0-30.94-.27c-.86-3.48-.92-5.48-2.62-8.66,11.45-2.3,20.89-2.76,32.21.51A31.58,31.58,0,0,1,276,200.86Z"/><path class="cls-2" d="M259,211.07a104.59,104.59,0,0,0-7.3-31.81c3.15-1.44,7.2-.64,9.58.08,4,10.09,5.53,20.39,6.64,31.11C264.25,209.93,264.6,210,259,211.07Z"/><g class="cls-3"><path d="M289.83,329.18c4.24,7.78,7.36,7.52,17,3.49-10.48-19.74,1.28-90.58-11.84-101.25,0,4,.17,19.85-3.94,33.92-2.31,7.86-2.92,13.55-8.58,23.84C284.69,300.61,284.42,319.28,289.83,329.18Z"/></g><path class="cls-2" d="M245.21,62c-5.88-2-11-2.59-13.93-.06-2.55,2.15-3.61,6.08-2.9,10.8a67.31,67.31,0,0,0-22.52,1.91c.21-4.17-1-7.61-3.34-9.61-3.22-2.73-8.69-2.06-15,.06C176.41,68.83,167,84.23,176.44,93c8.37,7.79,20.92,1.53,26.48-8.34,9-3.5,18.89-5.33,28.45-3.76,5.36,8.69,16.54,13.95,24.07,6.94C264.17,79.72,255.47,65.45,245.21,62Z"/><ellipse class="cls-10" cx="190.9" cy="80.97" rx="8.98" ry="6.13" transform="translate(7.5 177.74) rotate(-50.8)"/><ellipse class="cls-2" cx="133.26" cy="104.6" rx="22.39" ry="25.71"/><ellipse class="cls-9" cx="135.66" cy="107.73" rx="11.39" ry="12"/><path class="cls-2" d="M240.8,106.41c1.71,4.14-4.2,7.68-12.55,8.43s-21.9-2.79-22.12-5.31,11.81-3,20.16-3.71S240.16,104.85,240.8,106.41Z"/><ellipse class="cls-9" cx="190.9" cy="80.97" rx="8.98" ry="6.13" transform="translate(7.5 177.74) rotate(-50.8)"/><ellipse class="cls-9" cx="242.1" cy="76.86" rx="5.45" ry="7.99" transform="translate(5.91 170.3) rotate(-39.2)"/><g class="cls-3"><path d="M130.07,130c-2.49.5-7.92-2.93-9.26-4-6.5-5-10-13.24-9.94-21.34,0-15.39,11.58-27.27,25.28-25.6a46.21,46.21,0,0,1,6,2s-24.18-.39-27.27,23.15C112.43,123,131.08,129.75,130.07,130Z"/></g><path class="cls-7" d="M322.26,264.26c9.13,11.9,18.46,24.18,22.57,38.61a59.87,59.87,0,0,1,1.9,22.95,6.56,6.56,0,0,1-1.44,4c-1.69,1.71-4.49,1.22-6.84.75a61,61,0,0,0-25.63.32,33.85,33.85,0,0,0,8.68-8.94c4.58-7.27,5.11-16.51,3.29-24.9s-5.75-16.15-9.64-23.8l-13.66-26.8c-.93-1.82-1.78-5.66,1.5-5.39,2.65.22,4.63,4.13,6,5.95Z"/><path class="cls-7" d="M268,289a11.12,11.12,0,0,1,3.16,3.14,13.88,13.88,0,0,1,1.45,4.47c1,4.77,1.92,9.89.05,14.39a48.45,48.45,0,0,0-32.79-26.27c.62.16,2.59-.61,3.25-.76a29,29,0,0,1,3.58-.59,31.28,31.28,0,0,1,7.49.13A30.83,30.83,0,0,1,268,289Z"/><path class="cls-7" d="M266.41,207.45c3.1,16.45,3.57,33.61-.62,49.82,1.74-2.4,1.71-5.12,2.6-7.71,4.57-13.4,2-29,.68-43.06S264,179.2,258.78,166c.49-.72,2.36-2.91,7.31-2-.26-.32-3.79-1.35-5.66-2.06a60.33,60.33,0,0,0-9-2.38,89.66,89.66,0,0,1,3.37,8.5c3.07,8.2,5.92,16.48,8.24,24.93C264.35,197.77,265.49,202.59,266.41,207.45Z"/><path class="cls-7" d="M129.44,104.68a11.34,11.34,0,0,0-2,8.08,13.79,13.79,0,0,1-1.85-3.39,8.42,8.42,0,0,1,1.66-8.55c1.23-1.25,5.34-3.29,6.76-1.3.85,1.21-.35,1.62-1.24,2.16A11.36,11.36,0,0,0,129.44,104.68Z"/><path class="cls-2" d="M83,359.42c3.65-2.65,7.84-3.6,12.06-4.44,6.18-1.22,12.41-2.33,18.69-1.49a48.88,48.88,0,0,1,8.68,2.38c-1,.27-2.12.7-2.6.81a101.18,101.18,0,0,1-16.34,3.17C93.82,361,88.09,359.74,83,359.42Z"/><g class="cls-3"><path d="M83,359.42a117.7,117.7,0,0,0,15.27.77,92.54,92.54,0,0,0,24.16-4.32,3.08,3.08,0,0,1,1.33,1.19c-1.32,2.22-12.26,5-22.68,5.82-9.73.81-19-.09-18.4-3.19h.16l-.09-.09Z"/></g><g class="cls-3"><path d="M175.92,317.26c-5.55,16.05,30.7,43.87,46.5,41.21-14.17-2.73-30.76-21.14-31.95-35.16,2.52-13.77,16.62-22.58,23.32-34.41-1.07-1.28-5.42,2.22-6.68,2.91A108.75,108.75,0,0,0,175.92,317.26Z"/></g><g class="cls-3"><path d="M219.28,140.24c0,2.32-4,4.09-21.87,5.47s-22.25-.44-22.23-2.75c0-1.67,3.81-2.59,21.67-4S219.3,138.58,219.28,140.24Z"/></g><path class="cls-2" d="M218.94,139.54c.08,1.24-9.55,2.72-21.51,3.49s-21.7.55-21.78-.69,9.55-2.87,21.5-3.64S218.86,138.31,218.94,139.54Z"/><path class="cls-12" d="M169,310.14a147.5,147.5,0,0,1,31.6-23.46c-20.81,8.65-34.47-15.8-44.57-42.1-9.76-25.41-16.12-45.28-2.23-60-8.15,2.57-12.75,4-18.57,15.21C127.74,214.22,149.65,295.81,169,310.14Z"/><path class="cls-12" d="M62.9,336.52C66.36,363,74.8,356,73.45,339.09c-1.63-20.41,4.93-46.54,5.42-52.23.29-3,2.21-16.23-3.62-11.06C65.59,294.31,62.33,315.61,62.9,336.52Z"/><g class="cls-3"><path d="M133.24,60.3c-10.5,32.39-12.63,67.66,28.07,74.89,20.17-2.89,41.7-6.91,62-4.84,6.16.63,16.17.89,19.38,6.52-29.5,12.62-85.59,15.95-113.12,2.57C87,118.75,122.08,57.28,135.46,34.21c4.15-7.17,10.87-9.11,10.28-7.84A219.27,219.27,0,0,0,133.24,60.3Z"/></g><g class="cls-3"><path d="M313.59,351.51c-1.25,1.29-1.09,3.35-1,5.15a39.42,39.42,0,0,1-1.41,13.45c-.49,1.72-1.08,3.65-.24,5.23a4,4,0,0,0,2.54,1.88,7.15,7.15,0,0,0,3.22,0,2.14,2.14,0,0,0,1.43-.75,2.36,2.36,0,0,0,.28-1.15C319,368.79,322,362.43,321,356c-.25-1.6-.9-4.4-2.39-5.35C317.36,349.79,314.6,350.47,313.59,351.51Z"/></g><g class="cls-3"><path d="M82.91,401.65c-5.34,2.79-7-3.55-8.34-12.31-.78-4.88-.17-15.78,5.74-16.72C86.94,371.56,76.28,381.11,82.91,401.65Z"/></g><path class="cls-7" d="M103.63,380.49c1,4.64,3,17.25,8.67,14.67-6.43-14.66-2.31-26-7.9-26.22C100.28,369.13,102.68,375.86,103.63,380.49Z"/><path class="cls-7" d="M341,368.92A28.73,28.73,0,0,0,346.58,348C346.44,347,345,342.13,343,343c-.57.23.69,6.79.74,7.78A46.15,46.15,0,0,1,341,368.92Z"/><g class="cls-3"><path d="M292.85,353a9.94,9.94,0,0,0,1.31,3.51,3.58,3.58,0,0,0,3.16,1.68,5.07,5.07,0,0,1-6-1.12,9.93,9.93,0,0,1-2.43-5.94c-.15-1.4-1.35-9.87,1.41-8.72C292.44,343.29,292.39,351.06,292.85,353Z"/></g><g class="cls-3"><path d="M342.18,354.17A33.54,33.54,0,0,1,340,368.22a2.6,2.6,0,0,1-.48.86.92.92,0,0,1-.89.28c-.54-.17-.63-.88-.62-1.44l.14-18.1a3.56,3.56,0,0,1,.2-1.38,5,5,0,0,1,1.87-1.75c.88-.61,1.17-.58,1.28.51C341.68,349.52,342.05,351.83,342.18,354.17Z"/></g><text class="cls-13" transform="translate(21 477.61)">ENMERI</text><text class="cls-14" transform="translate(35.77 507)"><tspan class="cls-15">C</tspan><tspan x="9.62" y="0">ONSU</tspan><tspan class="cls-16" x="49.61" y="0">L</tspan><tspan class="cls-17" x="56.26" y="0">T</tspan><tspan class="cls-18" x="64.2" y="0">A</tspan><tspan x="74.14" y="0">S </tspan><tspan class="cls-19" x="87.43" y="0">C</tspan><tspan x="97.05" y="0">ONFIABL</tspan><tspan class="cls-19" x="159.8" y="0">E</tspan><tspan class="cls-20" x="168.92" y="0">S EN C</tspan><tspan class="cls-21" x="215.51" y="0">U</tspan><tspan class="cls-22" x="225.5" y="0">A</tspan><tspan class="cls-23" x="235.52" y="0">L</tspan><tspan x="244.01" y="0">QUIER LUGAR</tspan></text></g></svg>