<svg id="Capa_1" data-name="Capa 1" xmlns="http://www.w3.org/2000/svg" xmlns:xlink="http://www.w3.org/1999/xlink" viewBox="0 0 512 512"><defs><style>.cls-1{clip-path:url(#clip-path);}.cls-2{fill:#e6eaea;}.cls-3{fill:#7c9ebf;}</style><clipPath id="clip-path"/></defs><g id="Capa_6_copia" data-name="Capa 6 copia"><g class="cls-1"><circle class="cls-2" cx="254.27" cy="136.23" r="128.03"/><path class="cls-2" d="M435.43,334.24a190.15,190.15,0,0,0-50.56-59.1l-10.68,44c32.58,14.48,53.46,60.19,48.34,111.48a145.6,145.6,0,0,1-12.45,46.6l-17.95-2c7.73-12.85,13.09-28.75,14.84-46.33,4.69-47.06-18.21-88.22-51.17-91.91s-63.47,31.46-68.17,78.53A113.56,113.56,0,0,0,293,464.1l-17.94-2a147.12,147.12,0,0,1-3-48.33c5.45-54.62,38.48-96.52,76.1-99.21l13.8-54.7c1.12.6,2.23,1.21,3.33,1.85a217.51,217.51,0,0,0-222.69.38L165.7,355c22.08.4,39.86,19.49,39.86,43,0,23.75-18.16,43-40.56,43s-40.57-19.26-40.57-43a43.53,43.53,0,0,1,20.08-37.12L123.8,275c-31,24.05-54,56.51-64.89,93.54C45.68,404.9,40,446.6,40,491c0,4.29.11,8.56.3,12.79H471.7c.19-4.23.3-8.5.3-12.79C472,431.82,460.84,377.46,435.43,334.24Z"/><path class="cls-3" d="M126.61,272.88l1.09-.8Z"/><path class="cls-3" d="M375.55,268.31c2.19,1.54,4.34,3.1,6.46,4.65Q378.83,270.58,375.55,268.31Z"/><ellipse class="cls-2" cx="165" cy="398.01" rx="24" ry="25.45"/></g></g></svg>